<?xml version="1.0" standalone="no"?>
<!DOCTYPE svg PUBLIC "-//W3C//DTD SVG 20010904//EN"
 "http://www.w3.org/TR/2001/REC-SVG-20010904/DTD/svg10.dtd">
<svg version="1.0" xmlns="http://www.w3.org/2000/svg"
 width="1279.000000pt" height="1280.000000pt" viewBox="0 0 1279.000000 1280.000000"
 preserveAspectRatio="xMidYMid meet">
<g transform="translate(0.000000,1280.000000) scale(0.100000,-0.100000)"
fill="#000000" stroke="none">
<path d="M6020 12794 c-1213 -87 -1870 -283 -2765 -824 -311 -188 -738 -493
-1033 -737 l-112 -94 -60 61 -60 61 -77 -68 c-42 -37 -143 -138 -225 -222
l-149 -155 60 -60 60 -61 -91 -105 c-310 -360 -554 -741 -841 -1315 -463 -928
-676 -1614 -717 -2312 -48 -814 86 -1827 346 -2625 247 -757 597 -1392 1085
-1968 61 -72 138 -160 172 -196 l60 -65 -68 -69 -68 -69 51 -59 c29 -33 129
-135 223 -227 l172 -167 70 70 70 70 151 -135 c599 -536 1005 -776 1756 -1043
763 -271 1171 -391 1495 -439 293 -44 777 -49 1155 -12 1186 116 1869 270
2425 548 375 188 1150 716 1513 1032 l63 54 72 -71 73 -72 144 138 c80 77 181
178 224 227 l80 87 -62 60 -62 60 134 141 c315 334 493 562 666 853 233 393
407 880 648 1824 217 845 249 1750 96 2660 -144 856 -366 1524 -654 1970 -175
271 -492 663 -836 1031 l-82 88 76 74 75 75 -189 192 c-104 106 -206 206 -227
223 l-39 30 -74 -74 -73 -73 -23 20 c-772 691 -1542 1115 -2521 1389 -453 127
-993 227 -1432 265 -127 11 -583 20 -675 14z m840 -199 c539 -53 1134 -184
1650 -361 603 -206 1141 -503 1630 -898 100 -81 349 -297 379 -330 l25 -27
-74 -74 -74 -74 -32 27 c-17 15 -92 78 -165 141 -849 726 -1918 1201 -3034
1346 -463 61 -1058 60 -1520 0 -999 -131 -1955 -521 -2760 -1128 -155 -116
-306 -241 -402 -331 l-63 -58 -62 63 -61 63 49 45 c359 330 965 746 1439 989
279 142 474 227 735 318 421 147 979 256 1495 294 83 6 173 12 200 14 103 8
495 -4 645 -19z m4178 -2117 c382 -409 816 -1007 1006 -1386 178 -354 302
-798 411 -1477 75 -459 104 -770 112 -1190 8 -457 -23 -813 -112 -1245 -108
-534 -270 -1061 -481 -1568 -189 -452 -415 -776 -881 -1260 l-99 -103 -101
103 -102 102 27 32 c391 465 628 816 858 1275 348 697 546 1409 616 2219 18
209 15 763 -6 979 -73 784 -266 1468 -605 2151 -215 432 -504 871 -789 1198
l-55 63 74 78 c41 43 75 79 76 80 1 0 24 -23 51 -51z m-9137 -25 c80 -85 81
-70 -11 -180 -655 -782 -1110 -1753 -1289 -2753 -70 -390 -95 -683 -94 -1090
0 -330 15 -547 58 -848 162 -1123 639 -2173 1380 -3038 l76 -88 -103 -104
-103 -103 -55 58 c-186 197 -449 541 -619 812 -560 887 -846 1943 -902 3321
-30 742 66 1301 343 1995 212 531 504 1075 801 1491 150 209 445 574 466 574
4 0 27 -21 52 -47z m4889 -569 c651 -72 1246 -323 1775 -747 127 -102 397
-373 499 -500 419 -525 659 -1089 752 -1762 23 -164 26 -676 6 -825 -71 -514
-204 -926 -423 -1313 -427 -754 -1113 -1321 -1919 -1587 -402 -133 -793 -187
-1230 -169 -991 41 -1920 522 -2545 1319 -364 463 -613 1047 -699 1640 -52
359 -45 776 20 1130 196 1068 883 1987 1845 2470 237 119 440 195 694 260 226
58 383 81 690 104 92 7 398 -4 535 -20z m-4245 -7945 c847 -739 1908 -1230
3000 -1388 357 -51 584 -65 970 -58 392 7 599 27 955 92 1019 186 1978 647
2773 1334 l98 84 94 -94 94 -94 -83 -72 c-478 -414 -862 -692 -1316 -953 -681
-391 -1202 -511 -2595 -596 -408 -25 -777 -11 -1095 42 -424 70 -1216 336
-1824 613 -336 153 -611 325 -934 585 -126 100 -352 297 -392 340 l-24 27 99
99 c55 55 102 100 105 100 3 0 37 -28 75 -61z"/>
</g>
</svg>
