<?xml version="1.0" standalone="no"?>
<!DOCTYPE svg PUBLIC "-//W3C//DTD SVG 20010904//EN"
 "http://www.w3.org/TR/2001/REC-SVG-20010904/DTD/svg10.dtd">
<svg version="1.0" xmlns="http://www.w3.org/2000/svg"
 width="1280.000000pt" height="1159.000000pt" viewBox="0 0 1280.000000 1159.000000"
 preserveAspectRatio="xMidYMid meet">

<g transform="translate(0.000000,1159.000000) scale(0.100000,-0.100000)"
fill="#000000" stroke="none">
<path d="M11008 11452 c-92 -75 -167 -140 -168 -144 0 -4 83 -84 185 -179
l186 -173 -38 -37 c-21 -20 -758 -704 -1638 -1520 -880 -815 -1959 -1816
-2398 -2223 -439 -408 -802 -742 -806 -744 -4 -1 -469 399 -1032 890 -563 491
-1636 1425 -2384 2076 -748 652 -1370 1194 -1383 1206 l-23 22 156 203 c85
112 155 205 155 207 0 6 -361 336 -364 333 -49 -64 -856 -1209 -856 -1216 0
-4 69 -77 154 -162 l153 -153 158 206 158 206 81 -73 c44 -41 1031 -919 2191
-1952 1161 -1033 2183 -1944 2273 -2024 l163 -146 -33 -29 c-18 -16 -301 -278
-628 -581 -747 -692 -847 -780 -1121 -987 -341 -258 -550 -377 -1069 -608
-322 -143 -518 -241 -686 -342 -116 -69 -177 -122 -1240 -1078 -615 -553
-1127 -1012 -1137 -1020 -17 -14 23 -51 629 -573 356 -306 650 -557 654 -557
3 0 501 470 1105 1044 763 723 1125 1074 1181 1142 197 241 320 427 504 769
170 315 255 447 419 653 200 250 357 408 1169 1176 l664 627 36 -33 c21 -18
364 -325 764 -681 937 -834 1059 -949 1314 -1242 246 -282 355 -443 623 -919
180 -318 271 -464 395 -631 89 -120 118 -148 1208 -1149 615 -565 1121 -1027
1125 -1028 10 -1 991 1385 986 1394 -2 4 -506 445 -1120 980 -694 605 -1160
1004 -1232 1055 -250 176 -484 303 -817 442 -370 155 -526 237 -764 396 -273
184 -338 237 -1316 1090 -422 369 -777 677 -787 685 -21 17 -364 -311 3503
3353 712 675 1297 1226 1301 1225 4 -2 89 -78 189 -170 100 -93 185 -168 190
-168 9 0 353 308 358 320 2 5 -860 757 -1108 966 -13 11 -41 -8 -182 -124z"/>
</g>
</svg>
